<?xml version="1.0" encoding="UTF-8"?>
<svg version="1.1" xmlns="http://www.w3.org/2000/svg" width="240" height="240">
<path d="M0 0 C2.47297347 2.19612017 4.87949247 4.4447074 7.26953125 6.73046875 C7.89472656 7.2925 8.51992187 7.85453125 9.1640625 8.43359375 C14.52732716 13.42155095 18.5846731 19.42314012 22.26953125 25.73046875 C22.26953125 26.39046875 22.26953125 27.05046875 22.26953125 27.73046875 C17.31953125 27.73046875 12.36953125 27.73046875 7.26953125 27.73046875 C7.27476807 28.81577881 7.28000488 29.90108887 7.28540039 31.01928711 C7.30344961 35.03164857 7.31496296 39.04400642 7.32446289 43.05639648 C7.32950329 44.79566043 7.33633555 46.53492011 7.3449707 48.27416992 C7.35704917 50.76872812 7.36276233 53.26323048 7.3671875 55.7578125 C7.37234879 56.54010727 7.37751007 57.32240204 7.38282776 58.12840271 C7.38302351 59.99613989 7.33152819 61.86376079 7.26953125 63.73046875 C5.45387689 65.54612311 2.95683163 64.85908774 0.54064941 64.86941528 C-0.26038208 64.86739105 -1.06141357 64.86536682 -1.88671875 64.86328125 C-3.11291931 64.86471634 -3.11291931 64.86471634 -4.3638916 64.86618042 C-6.09562253 64.8668622 -7.82735599 64.86500804 -9.55908203 64.86083984 C-12.21913357 64.85549154 -14.87901625 64.86078487 -17.5390625 64.8671875 C-19.21744829 64.86652672 -20.89583398 64.86524555 -22.57421875 64.86328125 C-23.37525024 64.86530548 -24.17628174 64.86732971 -25.00158691 64.86941528 C-30.61551796 64.84541954 -30.61551796 64.84541954 -31.73046875 63.73046875 C-31.81902036 61.06420845 -31.84571548 58.42399761 -31.828125 55.7578125 C-31.82671005 54.96016983 -31.8252951 54.16252716 -31.82383728 53.3407135 C-31.81822191 50.7830944 -31.80566687 48.22556157 -31.79296875 45.66796875 C-31.78795573 43.9381523 -31.78339248 42.20833449 -31.77929688 40.47851562 C-31.76909666 36.22910636 -31.74952443 31.97988459 -31.73046875 27.73046875 C-38.00046875 27.73046875 -44.27046875 27.73046875 -50.73046875 27.73046875 C-50.73046875 57.76046875 -50.73046875 87.79046875 -50.73046875 118.73046875 C-44.46046875 118.73046875 -38.19046875 118.73046875 -31.73046875 118.73046875 C-31.74207031 116.14332031 -31.75367188 113.55617187 -31.765625 110.890625 C-31.77341537 108.39526492 -31.77949224 105.89990618 -31.78540039 103.40454102 C-31.79044079 101.66527707 -31.79727305 99.92601739 -31.8059082 98.18676758 C-31.81798667 95.69220938 -31.82369983 93.19770702 -31.828125 90.703125 C-31.83328629 89.92083023 -31.83844757 89.13853546 -31.84376526 88.33253479 C-31.84396101 86.46479761 -31.79246569 84.59717671 -31.73046875 82.73046875 C-29.91481439 80.91481439 -27.41776913 81.60184976 -25.00158691 81.59152222 C-24.20055542 81.59354645 -23.39952393 81.59557068 -22.57421875 81.59765625 C-21.75675171 81.59669952 -20.93928467 81.5957428 -20.0970459 81.59475708 C-18.36531497 81.5940753 -16.63358151 81.59592946 -14.90185547 81.60009766 C-12.24180393 81.60544596 -9.58192125 81.60015263 -6.921875 81.59375 C-5.24348921 81.59441078 -3.56510352 81.59569195 -1.88671875 81.59765625 C-1.08568726 81.59563202 -0.28465576 81.59360779 0.54064941 81.59152222 C6.15458046 81.61551796 6.15458046 81.61551796 7.26953125 82.73046875 C7.35808286 85.39672905 7.38477798 88.03693989 7.3671875 90.703125 C7.36506508 91.899589 7.36506508 91.899589 7.36289978 93.120224 C7.35728441 95.6778431 7.34472937 98.23537593 7.33203125 100.79296875 C7.32701823 102.5227852 7.32245498 104.25260301 7.31835938 105.98242188 C7.30731 110.23180428 7.29003511 114.48112187 7.26953125 118.73046875 C11.22953125 118.73046875 15.18953125 118.73046875 19.26953125 118.73046875 C17.43292436 123.32198599 15.56283001 126.0045231 12.26953125 129.48046875 C11.7796875 130.00342529 11.28984375 130.52638184 10.78515625 131.06518555 C-5.74870931 148.50724185 -25.37694311 160.0033592 -49.79296875 161.046875 C-76.41690859 161.73845665 -98.84167902 155.52806473 -118.69921875 136.99609375 C-123.83239142 132.06838439 -129.07355161 126.88705077 -132.73046875 120.73046875 C-132.73046875 120.07046875 -132.73046875 119.41046875 -132.73046875 118.73046875 C-128.44046875 118.73046875 -124.15046875 118.73046875 -119.73046875 118.73046875 C-119.73046875 109.16046875 -119.73046875 99.59046875 -119.73046875 89.73046875 C-107.98059055 86.91853209 -107.98059055 86.91853209 -102.73046875 89.73046875 C-99.07127656 94.04333443 -96.31463333 98.85012695 -93.48046875 103.73046875 C-88.60150622 112.81658592 -88.60150622 112.81658592 -80.84423828 119.05664062 C-74.68666735 120.15660258 -68.72893758 119.36944387 -62.73046875 117.73046875 C-63.05208984 117.24803711 -63.37371094 116.76560547 -63.70507812 116.26855469 C-64.15689453 115.59083008 -64.60871094 114.91310547 -65.07421875 114.21484375 C-65.5753418 113.46332031 -66.07646484 112.71179688 -66.59277344 111.9375 C-67.68777511 110.29467102 -68.78217279 108.6514393 -69.87597656 107.0078125 C-72.33982593 103.30693881 -74.80657868 99.60880249 -77.30859375 95.93359375 C-78.0253125 94.8765625 -78.74203125 93.81953125 -79.48046875 92.73046875 C-80.1146875 91.80234375 -80.74890625 90.87421875 -81.40234375 89.91796875 C-82.73046875 87.73046875 -82.73046875 87.73046875 -82.73046875 85.73046875 C-80.71875 84.43359375 -80.71875 84.43359375 -78.04296875 82.98046875 C-71.18185699 78.97815356 -67.18310237 74.45937227 -64.73046875 66.73046875 C-64.30713238 63.92488774 -64.25344984 61.18935679 -64.29296875 58.35546875 C-64.2990918 57.60813477 -64.30521484 56.86080078 -64.31152344 56.09082031 C-64.47652476 50.25992743 -65.51386463 45.67909048 -68.73046875 40.73046875 C-69.26671875 39.82296875 -69.80296875 38.91546875 -70.35546875 37.98046875 C-79.23754939 29.56586604 -91.43867584 28.46810695 -103.11328125 28.31640625 C-104.05356171 28.2970401 -104.99384216 28.27767395 -105.96261597 28.25772095 C-108.9268118 28.19857464 -111.89104786 28.15180291 -114.85546875 28.10546875 C-116.88152611 28.06722902 -118.90756826 28.02817394 -120.93359375 27.98828125 C-125.86575989 27.89292765 -130.79800191 27.80866097 -135.73046875 27.73046875 C-128.3233836 8.52920943 -109.88254512 -4.96890233 -91.73046875 -13.14453125 C-61.52496045 -25.88110372 -25.24171007 -20.98059163 0 0 Z " fill="#515558" transform="translate(176.73046875,49.26953125)"/>
<path d="M0 0 C0.969375 -0.020625 1.93875 -0.04125 2.9375 -0.0625 C10.25847158 -0.10186006 17.12389086 0.54911269 23 5.25 C26.15738217 9.45984289 26.10386245 14.20343522 25.5 19.25 C23.45955616 23.65735869 21.32297956 25.83371094 16.81616211 27.66113281 C11.68544319 28.96558038 6.31715126 28.54930109 1.0625 28.4375 C-0.14599609 28.42396484 -1.35449219 28.41042969 -2.59960938 28.39648438 C-5.56687082 28.36129946 -8.53319937 28.31206696 -11.5 28.25 C-11.52886338 23.77084672 -11.54675187 19.29171709 -11.5625 14.8125 C-11.57087891 13.53310547 -11.57925781 12.25371094 -11.58789062 10.93554688 C-11.59111328 9.72060547 -11.59433594 8.50566406 -11.59765625 7.25390625 C-11.60289307 6.12799072 -11.60812988 5.0020752 -11.61352539 3.84204102 C-11.35789535 -1.99457006 -4.57979937 0.02360721 0 0 Z " fill="#525659" transform="translate(67.5,93.75)"/>
<path d="M0 0 C0.66 0 1.32 0 2 0 C2 29.7 2 59.4 2 90 C8.27 90 14.54 90 21 90 C20.98839844 87.41285156 20.97679687 84.82570313 20.96484375 82.16015625 C20.95705338 79.66479617 20.95097651 77.16943743 20.94506836 74.67407227 C20.94002796 72.93480832 20.9331957 71.19554864 20.92456055 69.45629883 C20.91248208 66.96174063 20.90676892 64.46723827 20.90234375 61.97265625 C20.89718246 61.19036148 20.89202118 60.40806671 20.88670349 59.60206604 C20.88650774 57.73432886 20.93800306 55.86670796 21 54 C22.81565436 52.18434564 25.31269962 52.87138101 27.72888184 52.86105347 C28.52991333 52.8630777 29.33094482 52.86510193 30.15625 52.8671875 C30.97371704 52.86623077 31.79118408 52.86527405 32.63342285 52.86428833 C34.36515378 52.86360655 36.09688724 52.86546071 37.82861328 52.86962891 C40.48866482 52.87497721 43.1485475 52.86968388 45.80859375 52.86328125 C47.48697954 52.86394203 49.16536523 52.8652232 50.84375 52.8671875 C51.64478149 52.86516327 52.44581299 52.86313904 53.27111816 52.86105347 C58.88504921 52.88504921 58.88504921 52.88504921 60 54 C60.08855161 56.6662603 60.11524673 59.30647114 60.09765625 61.97265625 C60.0962413 62.77029892 60.09482635 63.56794159 60.09336853 64.38975525 C60.08775316 66.94737435 60.07519812 69.50490718 60.0625 72.0625 C60.05748698 73.79231645 60.05292373 75.52213426 60.04882812 77.25195312 C60.03777875 81.50133553 60.02050386 85.75065312 60 90 C63.96 90 67.92 90 72 90 C70.22157001 94.44607497 69.35585467 95.9797308 66 99 C66 97.68 66 96.36 66 95 C66.66 94.67 67.32 94.34 68 94 C68.495 92.515 68.495 92.515 69 91 C65.7 91 62.4 91 59 91 C58.67 79.12 58.34 67.24 58 55 C40.675 54.505 40.675 54.505 23 54 C23.01160156 56.65933594 23.02320313 59.31867188 23.03515625 62.05859375 C23.04294652 64.62345256 23.04902345 67.18831007 23.05493164 69.75317383 C23.05997218 71.54094021 23.06680454 73.32870245 23.07543945 75.11645508 C23.0875173 77.68051168 23.09323094 80.24451397 23.09765625 82.80859375 C23.10281754 83.6127623 23.10797882 84.41693085 23.11329651 85.24546814 C23.11349215 87.16401715 23.06201983 89.08245368 23 91 C22 92 22 92 19.95874023 92.11352539 C19.08419189 92.10828857 18.20964355 92.10305176 17.30859375 92.09765625 C16.36435547 92.09443359 15.42011719 92.09121094 14.44726562 92.08789062 C13.45404297 92.07951172 12.46082031 92.07113281 11.4375 92.0625 C10.44041016 92.05798828 9.44332031 92.05347656 8.41601562 92.04882812 C5.94395151 92.03700007 3.47200482 92.02051849 1 92 C-0.63669759 88.72660483 -0.12902276 85.10779193 -0.11352539 81.51123047 C-0.11367142 80.63311707 -0.11381744 79.75500366 -0.1139679 78.85028076 C-0.11326958 75.9392248 -0.10548095 73.02823232 -0.09765625 70.1171875 C-0.09579178 68.10222407 -0.09436802 66.08726019 -0.09336853 64.07229614 C-0.08954562 58.7622147 -0.07971724 53.4521605 -0.06866455 48.14208984 C-0.05844559 42.72624073 -0.05386987 37.31038722 -0.04882812 31.89453125 C-0.03809479 21.26300885 -0.02102106 10.63150669 0 0 Z " fill="#3F4043" transform="translate(124,78)"/>
<path d="M0 0 C0.33 0 0.66 0 1 0 C1 11.55 1 23.1 1 35 C12.55 35 24.1 35 36 35 C36 23.45 36 11.9 36 0 C36.66 0 37.32 0 38 0 C38.0246501 5.10863896 38.04283607 10.21724359 38.05493164 15.32592773 C38.05997204 17.06519168 38.0668043 18.80445136 38.07543945 20.54370117 C38.08751792 23.03825937 38.09323108 25.53276173 38.09765625 28.02734375 C38.10281754 28.80963852 38.10797882 29.59193329 38.11329651 30.39793396 C38.11349226 32.26567114 38.06199694 34.13329204 38 36 C36.18434564 37.81565436 33.68730038 37.12861899 31.27111816 37.13894653 C30.47008667 37.1369223 29.66905518 37.13489807 28.84375 37.1328125 C27.61754944 37.13424759 27.61754944 37.13424759 26.36657715 37.13571167 C24.63484622 37.13639345 22.90311276 37.13453929 21.17138672 37.13037109 C18.51133518 37.12502279 15.8514525 37.13031612 13.19140625 37.13671875 C11.51302046 37.13605797 9.83463477 37.1347768 8.15625 37.1328125 C7.35521851 37.13483673 6.55418701 37.13686096 5.72888184 37.13894653 C0.11495079 37.11495079 0.11495079 37.11495079 -1 36 C-1.10091475 33.41810554 -1.13971499 30.863535 -1.1328125 28.28125 C-1.13376923 27.50817505 -1.13472595 26.7351001 -1.13571167 25.93859863 C-1.13639341 24.30102456 -1.13453957 22.66344781 -1.13037109 21.02587891 C-1.12502271 18.51068079 -1.13031626 15.99566127 -1.13671875 13.48046875 C-1.13605797 11.89322877 -1.1347768 10.3059889 -1.1328125 8.71875 C-1.13483673 7.96146606 -1.13686096 7.20418213 -1.13894653 6.4239502 C-1.11495132 1.11495132 -1.11495132 1.11495132 0 0 Z " fill="#383B3E" transform="translate(146,77)"/>
<path d="M0 0 C0.91644287 0.00523682 1.83288574 0.01047363 2.77709961 0.01586914 C3.76645508 0.0190918 4.75581055 0.02231445 5.77514648 0.02563477 C6.81606445 0.03401367 7.85698242 0.04239258 8.92944336 0.05102539 C10.49662109 0.05779297 10.49662109 0.05779297 12.09545898 0.06469727 C14.68600996 0.07652627 17.27644895 0.0930085 19.86694336 0.11352539 C19.86694336 0.44352539 19.86694336 0.77352539 19.86694336 1.11352539 C18.67456055 1.16250977 17.48217773 1.21149414 16.25366211 1.26196289 C14.68723268 1.33700143 13.12082757 1.41254879 11.55444336 1.48852539 C10.76875977 1.51946289 9.98307617 1.55040039 9.17358398 1.58227539 C8.03759766 1.6402832 8.03759766 1.6402832 6.87866211 1.69946289 C6.18216553 1.73088379 5.48566895 1.76230469 4.76806641 1.79467773 C2.54161597 2.03470792 2.54161597 2.03470792 -0.13305664 4.11352539 C-0.64148726 6.43106127 -0.64148726 6.43106127 -0.64477539 9.12133789 C-0.68022461 10.1074707 -0.71567383 11.09360352 -0.75219727 12.10961914 C-0.77475586 13.1421582 -0.79731445 14.17469727 -0.82055664 15.23852539 C-0.8547168 16.27879883 -0.88887695 17.31907227 -0.92407227 18.39086914 C-1.00672722 20.96498047 -1.07581819 23.53874369 -1.13305664 26.11352539 C3.09710799 26.06160505 7.32523809 25.96651292 11.55444336 25.86352539 C12.75262695 25.8493457 13.95081055 25.83516602 15.18530273 25.82055664 C16.34223633 25.78833008 17.49916992 25.75610352 18.69116211 25.72290039 C19.75423584 25.70195313 20.81730957 25.68100586 21.91259766 25.65942383 C25.53537915 24.99001308 27.23239515 23.63961828 29.86694336 21.11352539 C31.7226952 17.40202171 31.45873216 13.15423387 30.86694336 9.11352539 C28.59567002 6.08943175 28.59567002 6.08943175 25.86694336 4.11352539 C25.53694336 3.45352539 25.20694336 2.79352539 24.86694336 2.11352539 C28.21994176 3.29160591 30.62219626 4.30759151 32.86694336 7.11352539 C34.66178877 12.49806163 34.70001889 17.31408225 32.30444336 22.48852539 C28.60252162 26.47521034 25.20528375 27.92890457 19.86132812 28.35083008 C16.37923131 28.40842297 12.91118038 28.3751049 9.42944336 28.30102539 C8.22094727 28.28749023 7.01245117 28.27395508 5.76733398 28.26000977 C2.80007254 28.22482485 -0.16625601 28.17559235 -3.13305664 28.11352539 C-3.16192003 23.63437211 -3.17980851 19.15524248 -3.19555664 14.67602539 C-3.20393555 13.39663086 -3.21231445 12.11723633 -3.22094727 10.79907227 C-3.22416992 9.58413086 -3.22739258 8.36918945 -3.23071289 7.11743164 C-3.23594971 5.99151611 -3.24118652 4.86560059 -3.24658203 3.70556641 C-3.09149307 0.16453523 -3.09149307 0.16453523 0 0 Z " fill="#3D3F41" transform="translate(59.133056640625,93.886474609375)"/>
<path d="M0 0 C0.80103149 0.00202423 1.60206299 0.00404846 2.42736816 0.00613403 C3.24483521 0.00517731 4.06230225 0.00422058 4.90454102 0.00323486 C6.63627194 0.00255308 8.3680054 0.00440724 10.09973145 0.00857544 C12.75978298 0.01392374 15.41966566 0.00863041 18.07971191 0.00222778 C19.75809771 0.00288857 21.43648339 0.00416973 23.11486816 0.00613403 C23.91589966 0.0041098 24.71693115 0.00208557 25.54223633 0 C31.15616738 0.02399575 31.15616738 0.02399575 32.27111816 1.13894653 C32.35966977 3.80520684 32.3863649 6.44541768 32.36877441 9.11160278 C32.36735947 9.90924545 32.36594452 10.70688812 32.36448669 11.52870178 C32.35887133 14.08632089 32.34631628 16.64385371 32.33361816 19.20144653 C32.32860514 20.93126298 32.32404189 22.6610808 32.31994629 24.39089966 C32.30889691 28.64028206 32.29162203 32.88959965 32.27111816 37.13894653 C36.23111816 37.13894653 40.19111816 37.13894653 44.27111816 37.13894653 C42.49268818 41.5850215 41.62697283 43.11867733 38.27111816 46.13894653 C38.27111816 44.81894653 38.27111816 43.49894653 38.27111816 42.13894653 C38.93111816 41.80894653 39.59111816 41.47894653 40.27111816 41.13894653 C40.60111816 40.14894653 40.93111816 39.15894653 41.27111816 38.13894653 C37.97111816 38.13894653 34.67111816 38.13894653 31.27111816 38.13894653 C30.94111816 26.25894653 30.61111816 14.37894653 30.27111816 2.13894653 C18.72111816 1.80894653 7.17111816 1.47894653 -4.72888184 1.13894653 C-5.05888184 13.01894653 -5.38888184 24.89894653 -5.72888184 37.13894653 C-6.05888184 37.13894653 -6.38888184 37.13894653 -6.72888184 37.13894653 C-6.75353194 32.03030757 -6.77171791 26.92170294 -6.78381348 21.8130188 C-6.78885388 20.07375486 -6.79568614 18.33449517 -6.80432129 16.59524536 C-6.81639975 14.10068717 -6.82211292 11.6061848 -6.82653809 9.11160278 C-6.83169937 8.32930801 -6.83686066 7.54701324 -6.84217834 6.74101257 C-6.8423741 4.87327539 -6.79087878 3.00565449 -6.72888184 1.13894653 C-4.91322747 -0.67670783 -2.41618222 0.01032754 0 0 Z " fill="#333438" transform="translate(151.7288818359375,130.86105346679688)"/>
<path d="M0 0 C1.88295885 3.7659177 2.24970071 4.9537862 2.23046875 8.9140625 C2.22853516 9.83960938 2.22660156 10.76515625 2.22460938 11.71875 C2.21236328 12.6778125 2.20011719 13.636875 2.1875 14.625 C2.18685547 15.59179688 2.18621094 16.55859375 2.18554688 17.5546875 C2.14052002 24.71895995 2.14052002 24.71895995 1 27 C-1.28515625 27.4140625 -1.28515625 27.4140625 -4.0625 27.625 C-5.691875 27.74875 -7.32125 27.8725 -9 28 C-6.36 31.3 -3.72 34.6 -1 38 C-1.33 38.66 -1.66 39.32 -2 40 C-3.27280294 38.58510266 -4.5431583 37.16800334 -5.8125 35.75 C-6.52019531 34.96109375 -7.22789063 34.1721875 -7.95703125 33.359375 C-13 27.53537285 -13 27.53537285 -13 25 C-8.71 25 -4.42 25 0 25 C0 16.75 0 8.5 0 0 Z " fill="#434648" transform="translate(57,143)"/>
<path d="M0 0 C1 4 1 4 2 8 C1.34 8 0.68 8 0 8 C0 7.34 0 6.68 0 6 C-1.65226769 7.0945149 -3.29664298 8.2009517 -4.9375 9.3125 C-5.85402344 9.92738281 -6.77054688 10.54226562 -7.71484375 11.17578125 C-10.25778947 12.8664904 -10.25778947 12.8664904 -11 16 C-9.79826226 18.34969072 -9.79826226 18.34969072 -8.0625 20.6875 C-7.49660156 21.49574219 -6.93070313 22.30398437 -6.34765625 23.13671875 C-5.90292969 23.75160156 -5.45820312 24.36648437 -5 25 C-5.33 25.66 -5.66 26.32 -6 27 C-7.32018588 25.25579087 -8.63088602 23.50439909 -9.9375 21.75 C-10.66839844 20.77546875 -11.39929688 19.8009375 -12.15234375 18.796875 C-13.75345079 16.3732119 -14.57636238 14.8242508 -15 12 C-14.00419922 11.45472656 -14.00419922 11.45472656 -12.98828125 10.8984375 C-7.56603784 7.81132081 -3.63489369 5.08885117 0 0 Z " fill="#3C3F42" transform="translate(109,123)"/>
<path d="M0 0 C5.84414505 -1.79762943 11.34991938 -2.86607808 17 0 C24.50413514 7.73209444 29.78289704 17.64735488 35 27 C34.01 27.495 34.01 27.495 33 28 C31.10217617 25.16799539 29.20711663 22.33415102 27.3125 19.5 C26.78205078 18.70851562 26.25160156 17.91703125 25.70507812 17.1015625 C25.17978516 16.31523437 24.65449219 15.52890625 24.11328125 14.71875 C23.58476563 13.93556396 23.05625 13.15237793 22.51171875 12.34545898 C21 10 21 10 19.72265625 7.64086914 C18.59667055 5.58242654 17.54892846 3.76284327 16 2 C12.77597161 1.00294072 12.77597161 1.00294072 9.375 1.4375 C8.24835938 1.49808594 7.12171875 1.55867187 5.9609375 1.62109375 C2.94919993 1.909572 2.94919993 1.909572 0 3 C0 2.01 0 1.02 0 0 Z " fill="#383A3C" transform="translate(57,139)"/>
<path d="M0 0 C5.18375003 2.11398049 7.38083762 6.24820695 10 11 C10.875 13.875 10.875 13.875 11 17 C11.04898438 17.80050781 11.09796875 18.60101563 11.1484375 19.42578125 C11.40502376 26.40295381 10.15013792 32.38320653 8 39 C7.34 39 6.68 39 6 39 C6.32226562 38.01773438 6.64453125 37.03546875 6.9765625 36.0234375 C8.15693762 31.86809925 8.38467783 27.92824682 8.375 23.625 C8.37258301 22.50291138 8.37258301 22.50291138 8.37011719 21.3581543 C8.24025459 15.50478868 7.19313175 10.98387455 4 6 C3.6184375 5.38382812 3.236875 4.76765625 2.84375 4.1328125 C1.93719144 2.72764673 0.97525345 1.35838873 0 0 Z " fill="#383A3C" transform="translate(104,84)"/>
<path d="M0 0 C3.3529984 1.17808052 5.7552529 2.19406612 8 5 C9.81074456 10.43223369 9.83305823 15.23776143 7.375 20.4375 C4.69924252 23.32450149 2.79794988 24.13682957 -1 25 C-0.21625 24.236875 0.5675 23.47375 1.375 22.6875 C4.84616023 19.1336931 6.31039922 17.04454771 6.4375 12.125 C6.37874694 8.0945402 6.21968859 7.27038595 3.5625 4 C2.716875 3.34 1.87125 2.68 1 2 C0.67 1.34 0.34 0.68 0 0 Z " fill="#37383B" transform="translate(84,96)"/>
<path d="M0 0 C4.29 0 8.58 0 13 0 C10.23776722 2.76223278 7.79293383 2.57856291 4 3 C6.64 6.3 9.28 9.6 12 13 C11.67 13.66 11.34 14.32 11 15 C9.72719706 13.58510266 8.4568417 12.16800334 7.1875 10.75 C6.47980469 9.96109375 5.77210937 9.1721875 5.04296875 8.359375 C0 2.53537285 0 2.53537285 0 0 Z " fill="#36383B" transform="translate(44,168)"/>
<path d="M0 0 C0.33 0 0.66 0 1 0 C1 2.31 1 4.62 1 7 C4.96 7 8.92 7 13 7 C11.22157001 11.44607497 10.35585467 12.9797308 7 16 C7 14.68 7 13.36 7 12 C7.66 11.67 8.32 11.34 9 11 C9.33 10.01 9.66 9.02 10 8 C6.7 8 3.4 8 0 8 C0 5.36 0 2.72 0 0 Z " fill="#2F3135" transform="translate(183,161)"/>
<path d="M0 0 C4.75481646 0.57634139 7.97048212 2.55068521 12 5 C11.67 5.66 11.34 6.32 11 7 C10.45730469 6.72285156 9.91460937 6.44570312 9.35546875 6.16015625 C8.64003906 5.79792969 7.92460938 5.43570313 7.1875 5.0625 C6.47980469 4.70285156 5.77210937 4.34320313 5.04296875 3.97265625 C2.88189715 2.89269484 2.88189715 2.89269484 0 2 C0 1.34 0 0.68 0 0 Z " fill="#3D3E42" transform="translate(91,77)"/>
</svg>
